{
  "accessors": [
    {
      "bufferView": 2,
      "componentType": 5126,
      "count": 3006,
      "max": [
        1.2357641458511353,
        0.2504592537879944,
        1.2357641458511353
      ],
      "min": [
        -1.2357641458511353,
        -0.2504592537879944,
        -1.2357641458511353
      ],
      "type": "VEC3"
    },
    {
      "bufferView": 2,
      "byteOffset": 36072,
      "componentType": 5126,
      "count": 3006,
      "max": [
        0.997058093547821,
        1.0,
        0.9998176693916321
      ],
      "min": [
        -0.9970580339431763,
        -1.0,
        -0.997058093547821
      ],
      "type": "VEC3"
    },
    {
      "bufferView": 1,
      "componentType": 5126,
      "count": 3006,
      "max": [
        1.0,
        0.7500001192092896
      ],
      "min": [
        8.881784197001252e-16,
        0.5
      ],
      "type": "VEC2"
    },
    {
      "bufferView": 0,
      "componentType": 5125,
      "count": 4230,
      "type": "SCALAR"
    },
    {
      "bufferView": 2,
      "byteOffset": 72144,
      "componentType": 5126,
      "count": 118,
      "max": [
        0.9623467922210693,
        0.13204973936080933,
        0.9623468518257141
      ],
      "min": [
        -0.9623469114303589,
        -0.13204973936080933,
        -0.9623468518257141
      ],
      "type": "VEC3"
    },
    {
      "bufferView": 2,
      "byteOffset": 73560,
      "componentType": 5126,
      "count": 118,
      "max": [
        1.977902508443208e-09,
        1.0,
        -0.0
      ],
      "min": [
        -2.8679593810920778e-08,
        -1.0,
        -0.0
      ],
      "type": "VEC3"
    },
    {
      "bufferView": 1,
      "byteOffset": 24048,
      "componentType": 5126,
      "count": 118,
      "max": [
        0.9791666865348816,
        0.7500001192092896
      ],
      "min": [
        8.881784197001252e-16,
        0.7499998211860657
      ],
      "type": "VEC2"
    },
    {
      "bufferView": 0,
      "byteOffset": 16920,
      "componentType": 5125,
      "count": 330,
      "type": "SCALAR"
    },
    {
      "bufferView": 3,
      "componentType": 5126,
      "count": 57,
      "max": [
        2.375
      ],
      "min": [
        0.0416666679084301
      ],
      "type": "SCALAR"
    },
    {
      "bufferView": 4,
      "componentType": 5126,
      "count": 57,
      "max": [
        -0.003190198913216591,
        3.215754985809326,
        -0.0017692465335130692
      ],
      "min": [
        -0.003190198913216591,
        1.2799999713897705,
        -0.0017692465335130692
      ],
      "type": "VEC3"
    },
    {
      "bufferView": 3,
      "byteOffset": 228,
      "componentType": 5126,
      "count": 57,
      "max": [
        2.375
      ],
      "min": [
        0.0416666679084301
      ],
      "type": "SCALAR"
    },
    {
      "bufferView": 5,
      "componentType": 5126,
      "count": 57,
      "max": [
        0.7071043848991394,
        0.7049218416213989,
        0.7071067690849304,
        0.7071044445037842
      ],
      "min": [
        3.0908619663705394e-08,
        -0.7071067690849304,
        -0.7049218416213989,
        3.0908616110991716e-08
      ],
      "type": "VEC4"
    },
    {
      "bufferView": 3,
      "byteOffset": 456,
      "componentType": 5126,
      "count": 61,
      "max": [
        2.5
      ],
      "min": [
        0.0
      ],
      "type": "SCALAR"
    },
    {
      "bufferView": 5,
      "byteOffset": 912,
      "componentType": 5126,
      "count": 61,
      "max": [
        0.0,
        0.5370293259620667,
        -0.0,
        1.0
      ],
      "min": [
        0.0,
        -0.003333154832944274,
        -0.0,
        0.8435635566711426
      ],
      "type": "VEC4"
    },
    {
      "bufferView": 3,
      "byteOffset": 700,
      "componentType": 5126,
      "count": 61,
      "max": [
        2.5
      ],
      "min": [
        0.0
      ],
      "type": "SCALAR"
    },
    {
      "bufferView": 4,
      "byteOffset": 684,
      "componentType": 5126,
      "count": 61,
      "max": [
        -0.003190198913216591,
        3.2220847606658936,
        -0.0017692465335130692
      ],
      "min": [
        -0.003190198913216591,
        1.2799999713897705,
        -0.0017692465335130692
      ],
      "type": "VEC3"
    }
  ],
  "animations": [
    {
      "channels": [
        {
          "sampler": 0,
          "target": {
            "node": 3,
            "path": "translation"
          }
        },
        {
          "sampler": 1,
          "target": {
            "node": 3,
            "path": "rotation"
          }
        }
      ],
      "name": "Action",
      "samplers": [
        {
          "input": 8,
          "interpolation": "LINEAR",
          "output": 9
        },
        {
          "input": 10,
          "interpolation": "LINEAR",
          "output": 11
        }
      ]
    },
    {
      "channels": [
        {
          "sampler": 0,
          "target": {
            "node": 3,
            "path": "rotation"
          }
        },
        {
          "sampler": 1,
          "target": {
            "node": 3,
            "path": "translation"
          }
        }
      ],
      "name": "CoinHover",
      "samplers": [
        {
          "input": 12,
          "interpolation": "LINEAR",
          "output": 13
        },
        {
          "input": 14,
          "interpolation": "LINEAR",
          "output": 15
        }
      ]
    }
  ],
  "asset": {
    "extras": {
      "author": "SpaceScapes (https://sketchfab.com/metalman9944)",
      "license": "CC-BY-4.0 (http://creativecommons.org/licenses/by/4.0/)",
      "source": "https://sketchfab.com/3d-models/gold-coin-dc6a39a4b4b44e9680972cc561d244d1",
      "title": "Gold Coin"
    },
    "generator": "Sketchfab-15.30.0",
    "version": "2.0"
  },
  "bufferViews": [
    {
      "buffer": 0,
      "byteLength": 18240,
      "name": "floatBufferViews",
      "target": 34963
    },
    {
      "buffer": 0,
      "byteLength": 24992,
      "byteOffset": 18240,
      "byteStride": 8,
      "name": "floatBufferViews",
      "target": 34962
    },
    {
      "buffer": 0,
      "byteLength": 74976,
      "byteOffset": 43232,
      "byteStride": 12,
      "name": "floatBufferViews",
      "target": 34962
    },
    {
      "buffer": 0,
      "byteLength": 944,
      "byteOffset": 118208,
      "name": "floatBufferViews"
    },
    {
      "buffer": 0,
      "byteLength": 1416,
      "byteOffset": 119152,
      "byteStride": 12,
      "name": "floatBufferViews"
    },
    {
      "buffer": 0,
      "byteLength": 1888,
      "byteOffset": 120568,
      "byteStride": 16,
      "name": "floatBufferViews"
    }
  ],
  "buffers": [
    {
      "byteLength": 122456,
      "uri": "scene.bin"
    }
  ],
  "materials": [
    {
      "doubleSided": true,
      "name": "Edge",
      "pbrMetallicRoughness": {
        "baseColorFactor": [
          0.814846,
          0.417885,
          0.000910722,
          1.0
        ],
        "roughnessFactor": 0.594488
      }
    },
    {
      "doubleSided": true,
      "name": "Face",
      "pbrMetallicRoughness": {
        "baseColorFactor": [
          0.896269,
          0.571125,
          0.0040249,
          1.0
        ],
        "roughnessFactor": 0.15748
      }
    }
  ],
  "meshes": [
    {
      "name": "Object_0",
      "primitives": [
        {
          "attributes": {
            "NORMAL": 1,
            "POSITION": 0,
            "TEXCOORD_0": 2
          },
          "indices": 3,
          "material": 0,
          "mode": 4
        }
      ]
    },
    {
      "name": "Object_1",
      "primitives": [
        {
          "attributes": {
            "NORMAL": 5,
            "POSITION": 4,
            "TEXCOORD_0": 6
          },
          "indices": 7,
          "material": 1,
          "mode": 4
        }
      ]
    }
  ],
  "nodes": [
    {
      "children": [
        1
      ],
      "matrix": [
        1.0,
        0.0,
        0.0,
        0.0,
        0.0,
        2.220446049250313e-16,
        -1.0,
        0.0,
        0.0,
        1.0,
        2.220446049250313e-16,
        0.0,
        0.0,
        0.0,
        0.0,
        1.0
      ],
      "name": "Sketchfab_model"
    },
    {
      "children": [
        2
      ],
      "name": "root"
    },
    {
      "children": [
        3
      ],
      "matrix": [
        1.0,
        0.0,
        0.0,
        0.0,
        0.0,
        2.220446049250313e-16,
        1.0,
        0.0,
        0.0,
        -1.0,
        2.220446049250313e-16,
        0.0,
        0.0,
        0.0,
        0.0,
        1.0
      ],
      "name": "GLTF_SceneRootNode"
    },
    {
      "children": [
        4,
        5
      ],
      "name": "Coin_0",
      "rotation": [
        0.7071067094802856,
        0.0,
        0.0,
        0.7071068286895752
      ],
      "translation": [
        -0.003190198913216591,
        3.215754985809326,
        -0.0017692465335130692
      ]
    },
    {
      "mesh": 0,
      "name": "Object_4"
    },
    {
      "mesh": 1,
      "name": "Object_5"
    }
  ],
  "scene": 0,
  "scenes": [
    {
      "name": "Sketchfab_Scene",
      "nodes": [
        0
      ]
    }
  ]
}
